<svg xmlns="http://www.w3.org/2000/svg" xmlns:xlink="http://www.w3.org/1999/xlink" width="135" height="135" viewBox="0 0 135 135">
    <defs>
        <filter id="fmj1n9bf4a" color-interpolation-filters="auto">
            <feColorMatrix in="SourceGraphic" values="0 0 0 0 1.000000 0 0 0 0 1.000000 0 0 0 0 1.000000 0 0 0 1.000000 0"/>
        </filter>
        <filter id="6bjg7zy4ab" color-interpolation-filters="auto">
            <feColorMatrix in="SourceGraphic" values="0 0 0 0 0.878850 0 0 0 0 0.878850 0 0 0 0 0.878850 0 0 0 1.000000 0"/>
        </filter>
        <path id="3axbpb9nkc" d="M44.943 27.698c1.12 1.093 1.125 2.906.017 3.99l-26.555 26.86c-1.082 1.135-2.872 1.135-3.985.009-1.08-1.09-1.075-2.91.01-4.045l22.36-22.575 2.078-2.237-2.061-2.22L14.42 4.835c-1.077-1.086-1.077-2.902 0-3.991 1.112-1.125 2.897-1.127 3.98.003l26.543 26.851z"/>
        <path id="qb7ulmrj0e" d="M0 0H59.4V59.4H0z"/>
    </defs>
    <g fill="none" fill-rule="evenodd">
        <g>
            <g>
                <g filter="url(#fmj1n9bf4a)" transform="translate(-1100.000000, -193.000000) translate(100.000000, 100.000000) translate(1000.000000, 93.000000)">
                    <g filter="url(#6bjg7zy4ab)">
                        <g transform="translate(67.500000, 67.500000) rotate(-180.000000) translate(-67.500000, -67.500000) translate(37.800000, 37.800000)">
                            <mask id="jpcm7ym0od" fill="#fff">
                                <use xlink:href="#3axbpb9nkc"/>
                            </mask>
                            <g mask="url(#jpcm7ym0od)">
                                <mask id="a8uugv1q7f" fill="#fff">
                                    <use xlink:href="#qb7ulmrj0e"/>
                                </mask>
                                <use fill="#000" xlink:href="#qb7ulmrj0e"/>
                                <g mask="url(#a8uugv1q7f)" opacity=".1">
                                    <path d="M0 0H59.4V59.4H0z"/>
                                </g>
                            </g>
                        </g>
                    </g>
                    <path d="M0 0H135V135H0z"/>
                </g>
            </g>
        </g>
    </g>
</svg>
