<svg xmlns="http://www.w3.org/2000/svg" xmlns:xlink="http://www.w3.org/1999/xlink" width="135" height="135" viewBox="0 0 135 135">
    <defs>
        <path id="icgi1jliab" d="M29.708 1.294c4.185.002 8.245.869 12.067 2.576 1.266.565 1.834 2.051 1.27 3.32-.563 1.268-2.046 1.838-3.312 1.273-3.176-1.419-6.55-2.14-10.028-2.141h-.014c-6.586 0-12.777 2.568-17.437 7.232-4.663 4.668-7.233 10.877-7.237 17.482-.008 13.635 11.055 24.734 24.66 24.742h.014c6.586 0 12.777-2.568 17.437-7.233 4.663-4.667 7.233-10.876 7.237-17.48v-2.533c0-1.388 1.123-2.514 2.508-2.514 1.386 0 2.509 1.126 2.509 2.514v2.534c-.005 7.95-3.097 15.42-8.708 21.037-5.607 5.612-13.059 8.703-20.983 8.703h-.017c-7.93-.004-15.385-3.104-20.99-8.727C3.08 46.455-.004 38.98 0 31.033c.005-7.948 3.097-15.419 8.708-21.036 5.607-5.612 13.059-8.703 20.982-8.703zm28.11 3.476c.98-.982 2.568-.982 3.547 0 .98.982.98 2.573 0 3.555l-29.9 29.967c-.49.49-1.132.736-1.774.736-.642 0-1.284-.245-1.774-.736l-8.155-8.173c-.98-.982-.98-2.574 0-3.555.98-.982 2.568-.982 3.548 0l6.38 6.394z"/>
        <path id="kwbv1yx11d" d="M0 0H62.1V62.1H0z"/>
        <filter id="bw839oi2na" color-interpolation-filters="auto">
            <feColorMatrix in="SourceGraphic" values="0 0 0 0 0.878850 0 0 0 0 0.878850 0 0 0 0 0.878850 0 0 0 1.000000 0"/>
        </filter>
    </defs>
    <g fill="none" fill-rule="evenodd">
        <g>
            <g>
                <g>
                    <g>
                        <path d="M0 0H135V135H0z" transform="translate(-135.000000, -1196.000000) translate(100.000000, 100.000000) translate(35.000000, 726.000000) translate(0.000000, 370.000000)"/>
                        <g filter="url(#bw839oi2na)" transform="translate(-135.000000, -1196.000000) translate(100.000000, 100.000000) translate(35.000000, 726.000000) translate(0.000000, 370.000000)">
                            <g transform="translate(37.799995, 37.800000)">
                                <mask id="tnbq564ncc" fill="#fff">
                                    <use xlink:href="#icgi1jliab"/>
                                </mask>
                                <g mask="url(#tnbq564ncc)">
                                    <g transform="translate(0.000005, -0.000000)">
                                        <mask id="0inhip2k2e" fill="#fff">
                                            <use xlink:href="#kwbv1yx11d"/>
                                        </mask>
                                        <use fill="#000" xlink:href="#kwbv1yx11d"/>
                                        <g mask="url(#0inhip2k2e)" opacity=".1">
                                            <path d="M0 0H62.1V62.1H0z"/>
                                        </g>
                                    </g>
                                </g>
                            </g>
                        </g>
                    </g>
                </g>
            </g>
        </g>
    </g>
</svg>
