<svg xmlns="http://www.w3.org/2000/svg" xmlns:xlink="http://www.w3.org/1999/xlink" width="135" height="135" viewBox="0 0 135 135">
    <defs>
        <path id="1317mruttb" d="M59.296 44.923c.314-.733 1.033-1.209 1.82-1.212h.262c4.79 0 8.686-3.896 8.686-8.684 0-4.788-3.897-8.684-8.686-8.684h-.486c-.675-.003-1.293-.343-1.658-.892-.04-.2-.102-.395-.184-.582-.33-.748-.177-1.61.391-2.197l.156-.155.012-.013c1.64-1.64 2.542-3.822 2.54-6.142 0-2.315-.903-4.492-2.539-6.13l-.012-.013c-1.64-1.639-3.82-2.54-6.138-2.54h-.005c-2.32 0-4.5.905-6.139 2.545l-.162.163c-.588.568-1.449.721-2.197.391l-.028-.012c-.733-.314-1.21-1.032-1.212-1.819v-.263C43.717 3.896 39.82 0 35.032 0c-4.79 0-8.685 3.896-8.685 8.684v.486c-.003.675-.344 1.293-.893 1.658-.2.04-.395.102-.582.184-.748.33-1.61.177-2.197-.391l-.168-.168c-1.64-1.638-3.82-2.54-6.138-2.54h-.005c-2.32.001-4.5.906-6.144 2.551-1.64 1.641-2.542 3.823-2.54 6.142 0 2.32.905 4.5 2.546 6.138l.162.162c.568.588.722 1.449.391 2.197-.024.055-.046.11-.067.166-.282.768-.988 1.279-1.804 1.308h-.223C3.896 26.577 0 30.473 0 35.261c0 4.788 3.896 8.684 8.685 8.684h.487c.797.003 1.516.479 1.83 1.211l.012.028c.33.749.177 1.61-.392 2.198l-.162.162-.011.011c-1.636 1.64-2.536 3.82-2.535 6.136.001 2.32.906 4.5 2.547 6.14l.012.011c3.39 3.377 8.893 3.372 12.274-.013l.162-.162c.588-.568 1.449-.722 2.198-.392.054.024.11.047.165.067.768.283 1.28.99 1.309 1.804v.224c0 4.788 3.896 8.684 8.685 8.684 4.789 0 8.685-3.896 8.685-8.684v-.486c.003-.798.479-1.516 1.212-1.83l.028-.012c.748-.33 1.61-.177 2.197.391l.168.168c1.64 1.638 3.82 2.54 6.138 2.54h.005c2.32-.002 4.5-.906 6.144-2.552 3.385-3.387 3.382-8.896-.005-12.28l-.163-.161c-.568-.588-.721-1.449-.391-2.198l.012-.027zM35.032 5.66c1.667 0 3.024 1.357 3.024 3.024v.275c.012 3.05 1.829 5.797 4.628 7.003 2.88 1.264 6.189.661 8.437-1.537l.022-.022.177-.177c.523-.524 1.205-.832 1.937-.88l.201-.007h.002c.805 0 1.562.312 2.132.88l.01.01c.572.57.887 1.33.887 2.137 0 .806-.312 1.563-.88 2.134l-.008.009-.176.175-.022.023c-2.063 2.109-2.721 5.153-1.75 7.899.033.26.103.514.206.755 1.204 2.808 3.955 4.63 7.022 4.643h.497c1.668 0 3.025 1.356 3.025 3.024 0 1.667-1.357 3.024-3.025 3.024h-.274c-3.05.012-5.798 1.828-7.005 4.627-1.264 2.878-.66 6.187 1.538 8.435l.199.199c1.18 1.178 1.18 3.097-.003 4.281-.57.572-1.33.887-2.138.887h-.002c-.807 0-1.566-.314-2.14-.888l-.198-.197c-2.249-2.2-5.559-2.802-8.437-1.538-2.8 1.207-4.616 3.954-4.628 7.014v.498c0 1.668-1.357 3.024-3.025 3.024-1.667 0-3.024-1.357-3.024-3.024v-.33c-.074-3.135-2.006-5.864-4.931-6.978-2.862-1.224-6.138-.613-8.368 1.568l-.022.022-.177.176c-1.178 1.18-3.097 1.181-4.277.003l-.01-.01c-.569-.57-.881-1.327-.882-2.132 0-.808.314-1.568.885-2.14l.2-.2c2.2-2.248 2.803-5.558 1.539-8.436-1.207-2.8-3.954-4.615-7.016-4.628h-.497c-1.668 0-3.025-1.356-3.025-3.024 0-1.667 1.357-3.024 3.025-3.024h.329c3.136-.074 5.866-2.006 6.98-4.93 1.224-2.862.613-6.137-1.568-8.367l-.022-.022-.177-.177c-.571-.57-.886-1.33-.887-2.138 0-.807.314-1.567.89-2.143.57-.572 1.33-.887 2.138-.887h.002c.807 0 1.566.314 2.14.888l.176.176.023.022c2.11 2.063 5.154 2.72 7.9 1.75.26-.034.514-.103.755-.206 2.809-1.204 4.631-3.955 4.643-7.021v-.498c0-1.667 1.357-3.024 3.025-3.024zm0 17.756c-6.403 0-11.613 5.209-11.613 11.611 0 6.402 5.21 11.61 11.613 11.61s11.612-5.208 11.612-11.61c0-6.402-5.21-11.61-11.612-11.61zm0 5.66c3.282 0 5.952 2.67 5.952 5.95 0 3.282-2.67 5.952-5.952 5.952s-5.952-2.67-5.952-5.951c0-3.282 2.67-5.951 5.952-5.951z"/>
        <path id="23dwzpzcwd" d="M0 0H70.2V70.2H0z"/>
        <filter id="2jokbdlw4a" color-interpolation-filters="auto">
            <feColorMatrix in="SourceGraphic" values="0 0 0 0 0.878850 0 0 0 0 0.878850 0 0 0 0 0.878850 0 0 0 1.000000 0"/>
        </filter>
    </defs>
    <g fill="none" fill-rule="evenodd">
        <g>
            <g>
                <g>
                    <path d="M0 0H135V135H0z" transform="translate(-135.000000, -2545.000000) translate(100.000000, 100.000000) translate(35.000000, 2445.000000)"/>
                    <g filter="url(#2jokbdlw4a)" transform="translate(-135.000000, -2545.000000) translate(100.000000, 100.000000) translate(35.000000, 2445.000000)">
                        <g transform="translate(29.700000, 29.700000)">
                            <mask id="8x3c3c5wxc" fill="#fff">
                                <use xlink:href="#1317mruttb"/>
                            </mask>
                            <g mask="url(#8x3c3c5wxc)">
                                <mask id="6wq9kq1mge" fill="#fff">
                                    <use xlink:href="#23dwzpzcwd"/>
                                </mask>
                                <use fill="#000" xlink:href="#23dwzpzcwd"/>
                                <g mask="url(#6wq9kq1mge)" opacity=".1">
                                    <path d="M0 0H70.2V70.2H0z"/>
                                </g>
                            </g>
                        </g>
                    </g>
                </g>
            </g>
        </g>
    </g>
</svg>
