<svg xmlns="http://www.w3.org/2000/svg" width="258" height="343" viewBox="0 0 258 343">
    <g fill="none" fill-rule="evenodd">
        <g>
            <g transform="translate(-878.000000, -1307.000000) translate(881.995444, 1310.000000)">
                <g fill-rule="nonzero">
                    <g>
                        <path fill="#E65100" d="M250 0L0 0 22.059 249.632 125 279 227.941 249.632z"/>
                        <path fill="#E65100" stroke="#000" stroke-width="6" d="M250 0L0 0 22.059 249.632 125 279 227.941 249.632z"/>
                        <path fill="#FF6D00" d="M125 22.026L125 256.239 207.353 232.745 225.735 22.026z"/>
                    </g>
                    <g>
                        <path fill="#EEE" d="M31.223 102.989L1.756 102.989 3.966 143.449 62.164 162.575 62.164 131.679 31.96 121.38z" transform="translate(63.025210, 58.736842)"/>
                        <path fill="#FFF" d="M129.202 0L0 0 0 88.644 94.578 88.276 94.578 126.858 62.164 131.679 62.164 162.575 120.361 143.449 120.361 58.851 23.736 58.851 23.736 29.425 129.202 29.793z" transform="translate(63.025210, 58.736842)"/>
                    </g>
                </g>
                <rect width="250" height="38" x=".245" y="301.573" fill="#000" opacity=".2" rx="19"/>
            </g>
        </g>
    </g>
</svg>
