<svg xmlns="http://www.w3.org/2000/svg" width="258" height="343" viewBox="0 0 258 343">
    <g fill="none" fill-rule="evenodd">
        <g>
            <g transform="translate(-257.000000, -1307.000000) translate(261.000000, 1310.000000)">
                <g fill-rule="nonzero">
                    <path fill="#0277BD" d="M250 0L0 0 22.059 249.632 125 279 227.941 249.632z"/>
                    <path fill="#039BE5" d="M125 22.026L125 256.239 207.353 232.745 225.735 22.026z"/>
                    <path fill="#FFF" d="M191.912 58.737L125 58.737 125 88.105 161.029 88.105 158.824 117.474 125 117.474 125 146.842 157.353 146.842 155.147 179.882 125 190.161 125 220.997 183.088 201.908 188.235 117.474 188.235 117.474z"/>
                    <path fill="#EEE" d="M125 58.737v29.368H59.559l-2.206-29.368H125zm-33.824 58.737l1.471 29.368H125v-29.368H91.176zm2.942 44.052H64.706l2.206 40.382L125 220.998V190.16l-30.147-10.28-.735-18.355z"/>
                    <path stroke="#000" stroke-width="6" d="M0 0L22.059 249.632 125 279 227.941 249.632 250 0z"/>
                </g>
                <rect width="250" height="38" x=".245" y="301.573" fill="#000" opacity=".2" rx="19"/>
            </g>
        </g>
    </g>
</svg>
