<svg xmlns="http://www.w3.org/2000/svg" width="258" height="343" viewBox="0 0 258 343">
    <g fill="none" fill-rule="evenodd">
        <g>
            <g transform="translate(-1499.000000, -1307.000000) translate(1502.990888, 1310.000000)">
                <g fill-rule="nonzero">
                    <path fill="#FFF" d="M.84 0l.039 3.099C.9 4.803 5.913 61.233 12.019 128.498l11.1 122.3 49.895 13.76c27.441 7.568 50.46 13.797 51.152 13.846.692.047 24.015-6.12 51.828-13.706 44.593-12.161 50.613-13.993 50.933-15.499.444-2.097 22.282-244.744 22.26-247.34L249.17 0H.84z"/>
                    <path fill="#EAEBEC" d="M156.745 216.41c16.92-4.595 31.006-8.593 31.305-8.882.298-.29 2.278-20.05 4.4-43.91 2.12-23.861 4.07-44.964 4.332-46.896l.476-3.512h-73.092V143.785h39.463l-.393 1.86c-.216 1.022-1.055 9.81-1.864 19.528-.858 10.297-1.876 18.066-2.439 18.62-.53.524-8.57 2.949-17.866 5.389l-16.901 4.437v15.574c0 10.63.288 15.575.909 15.575.5 0 14.751-3.76 31.67-8.357zm40.032-122.413c-.555-4.049-5.494-58.358-5.494-60.406 0-1.244-2.905-1.363-33.14-1.363h-33.138V64.2l14.891.565c8.19.311 16.81.784 19.155 1.052l4.263.486 1.035 12.504c.569 6.878 1.247 13.9 1.507 15.604l.472 3.098h30.93l-.481-3.512z"/>
                    <path fill="#F0BE25" d="M73.014 264.558l-49.894-13.76-11.101-122.3C5.913 61.233.9 4.804.879 3.1L.838 0h248.332l.016 1.86c.022 2.596-21.816 245.243-22.26 247.34-.32 1.506-6.34 3.338-50.933 15.5-27.813 7.585-51.136 13.752-51.828 13.705-.692-.049-23.71-6.28-51.152-13.847zm83.77-47.562c17.247-4.723 31.603-8.977 31.902-9.454.3-.477 2.36-21.246 4.579-46.153s4.216-45.937 4.438-46.732c.382-1.366-2.553-1.446-53.177-1.446H90.944l2.282-23.758c1.254-13.066 2.311-23.791 2.348-23.832.037-.042 7.901-.289 17.476-.55 15.7-.427 48.075.807 49.158 1.874.405.398 3.067 26.123 3.067 29.634 0 1.732.237 1.758 16.256 1.758h16.257l-.383-3.512c-.21-1.932-1.588-16.9-3.06-33.261l-2.677-29.749-62.695-.212c-49.878-.168-62.697 0-62.702.827-.005.57-.37 4.199-.813 8.062-1.072 9.348-9.248 99.672-9.248 102.167v1.953h106.695l-.475 3.1c-.262 1.703-1.091 10.35-1.843 19.212s-1.61 16.343-1.905 16.622c-.782.74-32.166 8.998-34.123 8.98-.908-.01-9.013-2.001-18.011-4.427l-16.36-4.411-.6-6.936c-.33-3.815-.832-9.26-1.115-12.1l-.516-5.165H56.21l.035 3.098c.066 5.796 3.881 44.83 4.435 45.377.641.63 61.609 17.511 63.486 17.577.692.025 15.37-3.82 32.617-8.543z"/>
                    <path fill="#E4A126" d="M23.12 250.798l-11.101-122.3C5.913 61.233.9 4.804.879 3.1L.838 0h248.332l.016 1.86c.022 2.596-22.222 246.841-22.667 248.938-.32 1.506-5.933 1.74-50.526 13.901-27.813 7.586-51.136 13.753-51.828 13.707-.692-.05-23.71-6.28-51.152-13.848l-49.894-13.76zm142.939-4.648c21.948-5.965 40.318-11.264 40.821-11.775.785-.796 19.74-205.423 19.664-212.27l-.025-2.272H125.005V31.402H95.64c-22.928 0-29.365.227-29.37 1.033-.005.568-.37 4.194-.813 8.057-1.072 9.348-9.248 99.672-9.248 102.167v1.953h68.795v23.964c0 18.63-.234 23.961-1.049 23.95-.577-.01-8.41-2.001-17.408-4.427l-16.36-4.411-.6-6.936c-.33-3.815-.832-9.26-1.115-12.1l-.516-5.165H56.21l.035 3.098c.1 8.864 3.994 45.044 4.907 45.6.555.338 15.149 4.468 32.43 9.179l31.423 8.564v15.534c0 8.544.258 15.534.574 15.534.316 0 18.532-4.88 40.48-10.846zM93.137 89.675c1.206-12.944 2.358-23.682 2.558-23.86.201-.18 6.878-.504 14.838-.72l14.472-.395V113.211h-34.06l2.192-23.536z"/>
                    <path stroke="#000" stroke-width="6" d="M0 0L23.071 251.521 125 279 226.544 251.521 250 0z"/>
                </g>
                <rect width="250" height="38" x=".245" y="301.573" fill="#000" opacity=".2" rx="19"/>
            </g>
        </g>
    </g>
</svg>
