<svg width="68" height="68" viewBox="0 0 68 68" xmlns="http://www.w3.org/2000/svg">
    <path d="m36.146 18 .035.002a14.68 14.68 0 0 1 9.585 4.283 14.681 14.681 0 0 1 4.285 9.654v.792a14.611 14.611 0 0 1-1.562 6.592 14.717 14.717 0 0 1-5.427 5.939 14.722 14.722 0 0 1-7.743 2.202h-.037a14.62 14.62 0 0 1-6.075-1.33l-8.555 2.852a1.253 1.253 0 0 1-1.587-1.587l2.852-8.556a14.72 14.72 0 0 1 .872-13.854 14.722 14.722 0 0 1 5.944-5.43A14.606 14.606 0 0 1 35.285 18h.861zm-.07 2.508h-.788c-1.88 0-3.755.447-5.43 1.293a12.16 12.16 0 0 0-6.763 10.932 12.093 12.093 0 0 0 1.293 5.46c.15.298.176.644.07.961l-2.22 6.659 6.66-2.22c.316-.106.662-.08.961.07a12.091 12.091 0 0 0 5.426 1.293h.03a12.158 12.158 0 0 0 10.933-6.76 12.096 12.096 0 0 0 1.294-5.46v-.761a12.18 12.18 0 0 0-11.466-11.467zm-6.725 11.723a1.294 1.294 0 1 1 0 2.588 1.294 1.294 0 0 1 0-2.588zm6.47 0a1.294 1.294 0 1 1 0 2.588 1.294 1.294 0 0 1 0-2.588zm6.468 0a1.294 1.294 0 1 1 0 2.588 1.294 1.294 0 0 1 0-2.588z" fill="#FFF" fill-rule="evenodd"/>
</svg>
