<svg width="68" height="68" viewBox="0 0 68 68" xmlns="http://www.w3.org/2000/svg">
    <path d="m47.974 29.254-12.965-9.99a1.276 1.276 0 0 0-1.554 0l-12.965 9.99a1.25 1.25 0 0 0-.49.99v15.698c0 2.265 1.861 4.108 4.148 4.108h20.168c2.287 0 4.147-1.843 4.147-4.108V30.244c0-.387-.18-.753-.489-.99zm-2.043 16.688c0 .882-.725 1.6-1.615 1.6H24.147a1.61 1.61 0 0 1-1.615-1.6V30.857l11.699-9.014 11.699 9.014v15.085h.001zM29.91 33.27a1.26 1.26 0 0 0-1.266 1.254v13.013h2.532V35.779h6.111v11.758h2.533V34.525a1.26 1.26 0 0 0-1.266-1.254l-8.644-.001z" fill="#FFF" fill-rule="evenodd"/>
</svg>
