<svg xmlns="http://www.w3.org/2000/svg" xmlns:xlink="http://www.w3.org/1999/xlink" width="135" height="135" viewBox="0 0 135 135">
    <defs>
        <path id="q344ix9n8b" d="M34.221 0c.046 0 .092.001.138.004 7.237.4 14.045 3.442 19.17 8.567 5.125 5.125 8.168 11.933 8.567 19.17.002.046.004.092.004.138v1.583c.01 4.557-1.07 9.116-3.124 13.184-2.443 4.888-6.197 8.998-10.854 11.878-4.656 2.88-10.011 4.402-15.486 4.405h-.074c-4.174 0-8.351-.918-12.15-2.662l-17.11 5.704c-.26.087-.528.129-.793.129-.655 0-1.296-.257-1.774-.735-.672-.672-.907-1.665-.606-2.567l5.704-17.111c-1.755-3.82-2.673-8.025-2.662-12.23.003-5.468 1.526-10.823 4.405-15.48 2.88-4.656 6.99-8.41 11.887-10.858C23.501 1.079 28.033 0 32.568 0zm-.07 5.017h-1.577c-3.759 0-7.51.893-10.858 2.585-8.344 4.17-13.524 12.546-13.528 21.863-.01 3.778.884 7.552 2.585 10.92.302.596.352 1.289.14 1.924L6.476 55.625l13.317-4.439c.634-.211 1.327-.16 1.924.14 3.349 1.692 7.1 2.586 10.852 2.586h.061c9.323-.004 17.699-5.184 21.864-13.518 1.706-3.377 2.6-7.15 2.59-10.923V27.95C56.366 15.576 46.524 5.734 34.15 5.017zM20.7 28.462c1.429 0 2.588 1.159 2.588 2.588s-1.159 2.588-2.588 2.588-2.587-1.159-2.587-2.588 1.158-2.588 2.587-2.588zm12.938 0c1.429 0 2.587 1.159 2.587 2.588s-1.158 2.588-2.587 2.588c-1.43 0-2.588-1.159-2.588-2.588s1.158-2.588 2.588-2.588zm12.937 0c1.429 0 2.587 1.159 2.587 2.588s-1.158 2.588-2.587 2.588c-1.429 0-2.588-1.159-2.588-2.588s1.159-2.588 2.588-2.588z"/>
        <path id="yptv63xszd" d="M0 0H62.1V62.1H0z"/>
        <filter id="4f6neaplba" color-interpolation-filters="auto">
            <feColorMatrix in="SourceGraphic" values="0 0 0 0 0.878850 0 0 0 0 0.878850 0 0 0 0 0.878850 0 0 0 1.000000 0"/>
        </filter>
    </defs>
    <g fill="none" fill-rule="evenodd">
        <g>
            <g>
                <g>
                    <g>
                        <path d="M0 0H135V135H0z" transform="translate(-135.000000, -1381.000000) translate(100.000000, 100.000000) translate(35.000000, 726.000000) translate(0.000000, 555.000000)"/>
                        <g filter="url(#4f6neaplba)" transform="translate(-135.000000, -1381.000000) translate(100.000000, 100.000000) translate(35.000000, 726.000000) translate(0.000000, 555.000000)">
                            <g transform="translate(37.800000, 37.800000)">
                                <mask id="0u8zcdpr9c" fill="#fff">
                                    <use xlink:href="#q344ix9n8b"/>
                                </mask>
                                <g mask="url(#0u8zcdpr9c)">
                                    <mask id="r553jz1mwe" fill="#fff">
                                        <use xlink:href="#yptv63xszd"/>
                                    </mask>
                                    <use fill="#000" xlink:href="#yptv63xszd"/>
                                    <g mask="url(#r553jz1mwe)" opacity=".1">
                                        <path d="M0 0H62.1V62.1H0z"/>
                                    </g>
                                </g>
                            </g>
                        </g>
                    </g>
                </g>
            </g>
        </g>
    </g>
</svg>
