<svg xmlns="http://www.w3.org/2000/svg" xmlns:xlink="http://www.w3.org/1999/xlink" width="135" height="135" viewBox="0 0 135 135">
    <defs>
        <path id="zkmm7kpk2b" d="M58.535 20.507L32.605.528c-.915-.704-2.195-.704-3.11 0l-25.93 19.98c-.617.475-.978 1.205-.978 1.98v31.395c0 4.53 3.721 8.217 8.295 8.217h40.336c4.574 0 8.294-3.686 8.294-8.217V22.487c0-.774-.36-1.504-.977-1.98zm-4.087 33.376c0 1.764-1.45 3.2-3.23 3.2H10.882c-1.781 0-3.23-1.436-3.23-3.2V23.714L31.05 5.686l23.398 18.028v30.17zM39.693 28.541H22.407c-1.399 0-2.533 1.123-2.533 2.509V59.59c0 1.386 1.134 2.509 2.533 2.509 1.398 0 2.532-1.123 2.532-2.509V33.558H37.16v26.033c0 1.386 1.134 2.509 2.532 2.509 1.399 0 2.532-1.123 2.532-2.509V31.05c0-1.385-1.133-2.509-2.532-2.509z"/>
        <path id="uds2oajsmd" d="M0 0H62.1V62.1H0z"/>
        <filter id="ykj6n35rba" color-interpolation-filters="auto">
            <feColorMatrix in="SourceGraphic" values="0 0 0 0 0.878850 0 0 0 0 0.878850 0 0 0 0 0.878850 0 0 0 1.000000 0"/>
        </filter>
    </defs>
    <g fill="none" fill-rule="evenodd">
        <g>
            <g>
                <g>
                    <path d="M0 0H135V135H0z" transform="translate(-135.000000, -826.000000) translate(100.000000, 100.000000) translate(35.000000, 726.000000)"/>
                    <g filter="url(#ykj6n35rba)" transform="translate(-135.000000, -826.000000) translate(100.000000, 100.000000) translate(35.000000, 726.000000)">
                        <g transform="translate(37.800000, 37.800000)">
                            <mask id="fv5ydtmzac" fill="#fff">
                                <use xlink:href="#zkmm7kpk2b"/>
                            </mask>
                            <g mask="url(#fv5ydtmzac)">
                                <g transform="translate(0.000000, 0.000000)">
                                    <mask id="viys2hm9oe" fill="#fff">
                                        <use xlink:href="#uds2oajsmd"/>
                                    </mask>
                                    <use fill="#000" xlink:href="#uds2oajsmd"/>
                                    <g mask="url(#viys2hm9oe)" opacity=".1">
                                        <path d="M0 0H62.1V62.1H0z"/>
                                    </g>
                                </g>
                            </g>
                        </g>
                    </g>
                </g>
            </g>
        </g>
    </g>
</svg>
